<svg width="24" height="24" viewBox="0 0 24 24" fill="none" xmlns="http://www.w3.org/2000/svg">
<path d="M8.16507 7.27303L11.1556 3.16108C11.5651 2.59805 12.4102 2.61529 12.7964 3.19455L15.8097 7.71452C15.933 7.89954 16.1145 8.03818 16.3255 8.1085L20.6395 9.54649C21.2995 9.7665 21.5387 10.5766 21.1041 11.1199L18.2445 14.6944C18.0873 14.8909 18.01 15.1394 18.0279 15.3904L18.3794 20.3113C18.4336 21.0704 17.6538 21.6095 16.9629 21.2906L12.4191 19.1934C12.1532 19.0707 11.8468 19.0707 11.5809 19.1934L7.03714 21.2906C6.34619 21.6095 5.5664 21.0704 5.62062 20.3113L5.97212 15.3904C5.99004 15.1394 5.91271 14.8909 5.75553 14.6944L2.8296 11.037C2.41414 10.5177 2.61195 9.74502 3.22585 9.48923L7.74095 7.60794C7.91038 7.53734 8.05711 7.42148 8.16507 7.27303Z" fill="#FFDC23"/>
<path d="M13.73 3.50989L15.49 7.02989C15.73 7.51989 16.37 7.98989 16.91 8.07989L20.1 8.60989C22.14 8.94989 22.62 10.4299 21.15 11.8899L18.67 14.3699C18.25 14.7899 18.02 15.5999 18.15 16.1799L18.86 19.2499C19.42 21.6799 18.13 22.6199 15.98 21.3499L12.99 19.5799C12.45 19.2599 11.56 19.2599 11.01 19.5799L8.02 21.3499C5.88 22.6199 4.58 21.6699 5.14 19.2499L5.85 16.1799C5.98 15.5999 5.75 14.7899 5.33 14.3699L2.85 11.8899C1.39 10.4299 1.86 8.94989 3.9 8.60989L7.09 8.07989C7.62 7.98989 8.26 7.51989 8.5 7.02989L10.26 3.50989C11.22 1.59989 12.78 1.59989 13.73 3.50989Z" stroke="black" stroke-width="1.5" stroke-linecap="round" stroke-linejoin="round"/>
</svg>
