<svg width="36" height="36" viewBox="0 0 36 36" fill="none" xmlns="http://www.w3.org/2000/svg">
<path d="M14.43 24L16.68 26.25L21.555 21.75" stroke="#292D32" stroke-width="1.5" stroke-linecap="round" stroke-linejoin="round"/>
<path d="M13.215 3L7.785 8.445" stroke="#292D32" stroke-width="1.5" stroke-miterlimit="10" stroke-linecap="round" stroke-linejoin="round"/>
<path d="M22.785 3L28.215 8.445" stroke="#292D32" stroke-width="1.5" stroke-miterlimit="10" stroke-linecap="round" stroke-linejoin="round"/>
<path d="M3 11.7749C3 8.9999 4.485 8.7749 6.33 8.7749H29.67C31.515 8.7749 33 8.9999 33 11.7749C33 14.9999 31.515 14.7749 29.67 14.7749H6.33C4.485 14.7749 3 14.9999 3 11.7749Z" stroke="#292D32" stroke-width="1.5"/>
<path d="M5.25 15L7.365 27.96C7.845 30.87 9 33 13.29 33H22.335C27 33 27.69 30.96 28.23 28.14L30.75 15" stroke="#292D32" stroke-width="1.5" stroke-linecap="round"/>
</svg>
